<?xml version="1.0" encoding="UTF-8"?>
<svg width="504px" height="504px" viewBox="0 0 504 504" version="1.1" xmlns="http://www.w3.org/2000/svg" xmlns:xlink="http://www.w3.org/1999/xlink">
    <title>Group 7 Copy 2@1,5x</title>
    <defs>
        <circle id="path-1" cx="57.672" cy="57.672" r="57.672"></circle>
    </defs>
    <g id="All" stroke="none" stroke-width="1" fill="none" fill-rule="evenodd">
        <g id="emty-states-copy" transform="translate(-2886.000000, -233.000000)">
            <g id="Group-7-Copy-2" transform="translate(2886.000000, 233.000000)">
                <g id="Group-90" transform="translate(43.000000, 78.000000)">
                    <g id="Group-89" transform="translate(200.625635, 12.292779)">
                        <rect id="Rectangle" stroke="#C1C7D0" stroke-width="1.296" fill="#FFFFFF" x="0.648" y="0.648" width="216.432" height="216.432" rx="10.368"></rect>
                        <g id="Oval-Copy-41" transform="translate(50.544000, 50.544000)">
                            <mask id="mask-2" fill="white">
                                <use xlink:href="#path-1"></use>
                            </mask>
                            <use id="Mask" stroke="#C1C7D0" stroke-width="2.592" fill="#C1C7D0" xlink:href="#path-1"></use>
                            <circle fill="#FFFFFF" mask="url(#mask-2)" cx="68.04" cy="71.928" r="57.672"></circle>
                        </g>
                        <circle id="Oval-Copy-42" fill="#C1C7D0" cx="81.648" cy="108.864" r="9.072"></circle>
                        <circle id="Oval-Copy-43" fill="#C1C7D0" cx="134.784" cy="108.864" r="9.072"></circle>
                        <circle id="Oval-Copy-44" stroke="#C1C7D0" stroke-width="1.296" cx="108.864" cy="108.864" r="8.424"></circle>
                        <line x1="103.68" y1="115.054456" x2="114.048" y2="102.88117" id="Path-142" stroke="#C1C7D0" stroke-width="1.296" stroke-linecap="round"></line>
                    </g>
                    <g id="Group-88" transform="translate(121.636000, 143.921051) scale(1, -1) rotate(-270.000000) translate(-121.636000, -143.921051) translate(61.636000, 41.421051)">
                        <rect id="Rectangle" stroke="#C1C7D0" stroke-width="1.296" fill="#C1C7D0" transform="translate(51.596646, 151.689585) rotate(8.000000) translate(-51.596646, -151.689585) " x="14.6606462" y="145.209585" width="73.872" height="12.96" rx="6.48"></rect>
                        <path d="M22.1399304,153.999672 L78.407441,162.122587 L70.0762779,190.467689 C68.5601433,195.626036 64.8343369,199.846321 59.9037558,201.990282 C54.6198946,204.287861 49.2394324,205.042504 43.7623691,204.254214 C41.4592195,203.922731 39.2426864,203.348463 37.1127697,202.531408 C28.0936626,199.071601 22.1399304,190.410931 22.1399304,180.750984 L22.1399304,153.999672 L22.1399304,153.999672 Z" id="Rectangle" fill="#EBECF0"></path>
                        <line x1="31.8148048" y1="168.641321" x2="67.4999304" y2="173.665552" id="Path-144" stroke="#C1C7D0" stroke-width="1.296" stroke-linecap="round"></line>
                        <line x1="31.8148048" y1="176.417321" x2="64.2599304" y2="181.526438" id="Path-144-Copy" stroke="#C1C7D0" stroke-width="1.296" stroke-linecap="round"></line>
                        <line x1="37.9113676" y1="185.489321" x2="56.4839304" y2="188.006438" id="Path-144-Copy-2" stroke="#C1C7D0" stroke-width="1.296" stroke-linecap="round"></line>
                        <path d="M24.2640025,141.379762 C28.0319544,113.813121 28.6199304,98.86094 26.0279304,96.5232196 C23.4359304,94.1854993 16.1561409,92.6429039 4.18856186,91.8954333 L9.6423468,50.2926501 L119.04517,65.5994597 L113.089574,107.273309 C99.8380238,104.493549 92.0170119,104.493549 89.6265388,107.273309 C87.2360658,110.053069 83.7603056,124.040745 79.1992583,149.236338 L24.2640025,141.379762 Z" id="Path-145" fill="#EBECF0"></path>
                        <rect id="Rectangle" fill="#FFFFFF" transform="translate(59.254662, 82.948862) rotate(7.000000) translate(-59.254662, -82.948862) " x="53.4226622" y="57.6768622" width="11.664" height="50.544"></rect>
                        <path d="M92.5870834,9.072 L94.0692741,9.072 C97.2427353,9.072 99.8337304,11.6094403 99.9000023,14.7822095 L100.887994,62.0823706 L100.887994,62.0823706 L87.7392593,62.0823706 L86.7563552,15.0257905 C86.6890922,11.8055683 89.2450706,9.14053488 92.4652928,9.07327182 C92.5058842,9.07242396 92.5464832,9.072 92.5870834,9.072 Z" id="Rectangle" fill="#DFE1E6" transform="translate(93.759994, 35.577185) rotate(9.000000) translate(-93.759994, -35.577185) "></path>
                        <path d="M39.4510834,1.296 L40.9332741,1.296 C44.1067353,1.296 46.6977304,3.83344026 46.7640023,7.00620946 L47.7519942,54.3063706 L47.7519942,54.3063706 L34.6032593,54.3063706 L33.6203552,7.24979054 C33.5530922,4.02956829 36.1090706,1.36453488 39.3292928,1.29727182 C39.3698842,1.29642396 39.4104832,1.296 39.4510834,1.296 Z" id="Rectangle-Copy-101" fill="#DFE1E6" transform="translate(40.623994, 27.801185) rotate(9.000000) translate(-40.623994, -27.801185) "></path>
                        <path d="M99.1621444,105.25997 L113.089574,107.273309 L113.089574,107.273309 L84.3479304,126.446438 L84.3479304,118.086641 C84.3479304,110.92903 90.15032,105.126641 97.3079304,105.126641 C97.9283965,105.126641 98.5480615,105.171198 99.1621444,105.25997 Z" id="Rectangle" fill="#C1C7D0"></path>
                        <path d="M16.8323325,91.5290332 L28.2545968,93.7894713 L28.2545968,93.7894713 L2.74095614,115.269117 L2.90498169,102.817492 C2.98983297,96.3762018 8.28031616,91.2232897 14.7216066,91.308141 C15.4304325,91.3174784 16.1369315,91.3914151 16.8323325,91.5290332 Z" id="Rectangle-Copy-102" fill="#C1C7D0" transform="translate(15.497776, 102.039240) scale(-1, 1) rotate(-9.000000) translate(-15.497776, -102.039240) "></path>
                    </g>
                    <line x1="97.1668552" y1="73.3194631" x2="63.1827789" y2="39.2674664" id="Path-146-Copy" stroke="#C1C7D0" stroke-width="1.296" stroke-linecap="round"></line>
                    <line x1="129.662649" y1="54.5797454" x2="112.599189" y2="11.9660012" id="Path-146-Copy-2" stroke="#C1C7D0" stroke-width="1.296" stroke-linecap="round"></line>
                    <line x1="166.827732" y1="46.3978944" x2="166.155227" y2="0" id="Path-146-Copy-3" stroke="#C1C7D0" stroke-width="1.296" stroke-linecap="round"></line>
                    <path d="M22.6599441,163.297057 C-2.81001365,181.455463 -6.49929548,206.59492 11.5920986,238.715428 C38.9007329,287.200758 103.470885,303.241355 115.392769,289.277725 C137.90918,262.905149 14.0468527,248.306778 31.1705853,289.277725 C44.469813,321.098005 102.744196,338.318905 164.674105,347.769839" id="Path-146" stroke="#C1C7D0"></path>
                </g>
            </g>
        </g>
    </g>
</svg>