<svg width="12" height="8" viewBox="0 0 12 8" fill="none" xmlns="http://www.w3.org/2000/svg">
<path fill-rule="evenodd" clip-rule="evenodd" d="M0 1.01944C0 0.969445 0.060577 0.944444 0.098077 0.980556L3.20481 4.025C3.225 4.04722 3.225 4.08056 3.20481 4.10278L1.03269 6.33056C0.885577 6.47222 0.885577 6.7 1.03269 6.84167C1.10481 6.91111 1.20288 6.94722 1.29808 6.94722C1.39327 6.94722 1.49135 6.91111 1.56346 6.84167L3.72692 4.62222C3.75 4.6 3.7875 4.6 3.81058 4.62222L4.31827 5.11944C4.76538 5.55556 5.37115 5.81389 6.00865 5.81111C6.6375 5.80833 7.22308 5.56944 7.66442 5.13889L8.19231 4.62222C8.21539 4.6 8.25288 4.6 8.27596 4.62222L10.4394 6.84167C10.5115 6.91111 10.6096 6.94722 10.7048 6.94722C10.8 6.94722 10.8981 6.91111 10.9702 6.84167C11.1173 6.7 11.1173 6.47222 10.9702 6.33056L8.79808 4.10278C8.775 4.08056 8.775 4.04722 8.79808 4.025L11.9019 0.980556C11.9365 0.947222 12 0.969445 12 1.01944V7.11111C12 7.6 11.5846 8 11.0769 8H0.923077C0.415385 8 0 7.6 0 7.11111V1.01944ZM11.0827 0C11.299 0 11.4952 0.0722221 11.6538 0.194444L7.12788 4.63056C6.82788 4.925 6.42692 5.08611 6 5.08611C5.57308 5.08611 5.17212 4.92222 4.875 4.63056L0.349038 0.194444C0.504808 0.0722221 0.703846 0 0.920192 0H11.0827Z" fill="#172B4D"/>
</svg>
