<svg width="93" height="36" viewBox="0 0 93 36" fill="none" xmlns="http://www.w3.org/2000/svg">
<path fill-rule="evenodd" clip-rule="evenodd" d="M28.8851 36L27.4353 34.527L33.1529 28.7529L38.8235 34.4682L37.3621 35.941L33.1529 31.687L28.8851 36Z" fill="#375DE7"/>
<path d="M8.40251 26.6825C11.2916 26.6825 13.7616 25.5406 15.7905 23.257V16.7644H8.29224V19.0928H13.4308V22.0481C12.1958 23.369 10.3432 24.1973 8.46867 24.1973C6.79258 24.1973 5.40319 23.6376 4.27844 22.4958C3.1537 21.354 2.60235 19.8988 2.60235 18.1749C2.60235 16.4286 3.17575 14.9733 4.3005 13.8315C5.42524 12.6897 6.83669 12.1076 8.53483 12.1076C10.5417 12.1076 12.1958 12.824 13.4969 14.2793L15.2392 12.533C13.7616 10.7643 11.2254 9.6001 8.51278 9.6001C6.13097 9.6001 4.12407 10.4061 2.47003 12.0404C0.815992 13.6524 0 15.6897 0 18.1749C0 20.6376 0.793938 22.6749 2.38181 24.2869C3.96969 25.8765 5.97659 26.6825 8.40251 26.6825Z" fill="black"/>
<path d="M18.9113 26.4362H21.4475V9.89115H18.9113V26.4362Z" fill="black"/>
<path d="M32.8026 26.6825C35.8019 26.6825 38.4484 25.2496 39.9701 23.1227L38.1617 21.5107C36.8164 23.3018 35.0521 24.1973 32.9129 24.1973C31.2368 24.1973 29.8474 23.6376 28.7226 22.5182C27.5979 21.3988 27.0465 19.9659 27.0465 18.2196C27.0465 16.4733 27.62 15.0181 28.7447 13.8539C29.8915 12.6897 31.2809 12.1076 32.9349 12.1076C35.03 12.1076 36.7282 13.0031 38.0735 14.8166L39.8819 13.1599C39.1762 12.0852 38.2058 11.2345 36.9487 10.5852C35.6917 9.93592 34.3464 9.6001 32.8688 9.6001C30.5311 9.6001 28.5462 10.4061 26.8922 12.0404C25.2381 13.6524 24.4221 15.7121 24.4221 18.2196C24.4221 20.7047 25.2381 22.7197 26.8481 24.3093C28.458 25.8989 30.4428 26.6825 32.8026 26.6825Z" fill="black"/>
<path d="M54.2477 26.4362L49.9031 19.6973C52.2628 19.048 53.542 17.1002 53.542 14.9285C53.542 13.5405 53.0788 12.3539 52.1746 11.3688C51.2704 10.3837 49.9692 9.89115 48.2711 9.89115H42.515V26.4362H45.0512V19.9435H47.2125L51.1822 26.4362H54.2477ZM48.2711 12.3315C49.9472 12.3315 50.9176 13.4509 50.9176 14.9061C50.9176 16.4062 49.9251 17.548 47.8741 17.548H45.0512V12.3315H48.2711Z" fill="black"/>
<path d="M59.437 26.4362V15.8465L64.752 23.7272H65.5018L70.8168 15.8465V26.4362H73.375V9.89115H71.9415L65.149 20.0331L58.3123 9.89115H56.9229V26.4362H59.437Z" fill="black"/>
<path d="M89.0503 26.4357L82.6767 9.89062H82.1254L75.7297 26.4357H76.6781L78.7511 21.0177H86.0509L88.1019 26.4357H89.0503ZM85.7642 20.1893H79.0158L82.39 11.3906L85.7642 20.1893Z" fill="#375DE7"/>
<path d="M91.7768 26.4357H92.659V9.89062H91.7768V26.4357Z" fill="#375DE7"/>
</svg>
