<svg width="124" height="48" viewBox="0 0 124 48" fill="none" xmlns="http://www.w3.org/2000/svg">
<path fill-rule="evenodd" clip-rule="evenodd" d="M38.5135 48.0001L36.5804 46.0361L44.2039 38.3374L51.7647 45.9578L49.8162 47.9215L44.2039 42.2495L38.5135 48.0001Z" fill="white"/>
<path d="M11.2033 35.5768C15.0554 35.5768 18.3488 34.0544 21.0541 31.0095V22.3527H11.0563V25.4572H17.9077V29.3976C16.261 31.1588 13.791 32.2633 11.2916 32.2633C9.05678 32.2633 7.20425 31.517 5.70459 29.9946C4.20493 28.4722 3.4698 26.5318 3.4698 24.2333C3.4698 21.9049 4.23434 19.9646 5.734 18.4422C7.23366 16.9198 9.11559 16.1436 11.3798 16.1436C14.0556 16.1436 16.261 17.0989 17.9959 19.0392L20.3189 16.7108C18.3488 14.3526 14.9672 12.8003 11.3504 12.8003C8.17462 12.8003 5.49876 13.8749 3.29337 16.0541C1.08799 18.2034 0 20.9198 0 24.2333C0 27.5169 1.05858 30.2334 3.17575 32.3827C5.29292 34.5021 7.96879 35.5768 11.2033 35.5768Z" fill="white"/>
<path d="M25.2151 35.2484H28.5967V13.1884H25.2151V35.2484Z" fill="white"/>
<path d="M43.7368 35.5768C47.7359 35.5768 51.2645 33.6663 53.2935 30.8304L50.8823 28.6811C49.0885 31.0692 46.7361 32.2633 43.8838 32.2633C41.649 32.2633 39.7965 31.517 38.2969 30.0244C36.7972 28.5319 36.0621 26.6214 36.0621 24.293C36.0621 21.9646 36.8266 20.0243 38.3263 18.472C39.8553 16.9198 41.7079 16.1436 43.9132 16.1436C46.7067 16.1436 48.9709 17.3377 50.7646 19.7556L53.1758 17.5466C52.2349 16.1138 50.9411 14.9794 49.265 14.1137C47.5889 13.2481 45.7952 12.8003 43.825 12.8003C40.7081 12.8003 38.0616 13.8749 35.8562 16.0541C33.6509 18.2034 32.5629 20.9497 32.5629 24.293C32.5629 27.6065 33.6509 30.2931 35.7974 32.4125C37.944 34.532 40.5905 35.5768 43.7368 35.5768Z" fill="white"/>
<path d="M72.3302 35.2484L66.5374 26.2632C69.6838 25.3975 71.3893 22.8004 71.3893 19.9049C71.3893 18.0541 70.7718 16.472 69.5662 15.1585C68.3606 13.8451 66.6257 13.1884 64.3615 13.1884H56.6867V35.2484H60.0683V26.5916H62.95L68.2429 35.2484H72.3302ZM64.3615 16.4421C66.5963 16.4421 67.8901 17.9347 67.8901 19.875C67.8901 21.8751 66.5668 23.3975 63.8322 23.3975H60.0683V16.4421H64.3615Z" fill="white"/>
<path d="M79.2494 35.2484V21.1288L86.336 31.6364H87.3358L94.4224 21.1288V35.2484H97.8334V13.1884H95.9221L86.8653 26.711L77.7497 13.1884H75.8972V35.2484H79.2494Z" fill="white"/>
<path d="M118.734 35.2475L110.236 13.1875H109.5L100.973 35.2475H102.237L105.001 28.0236H114.735L117.469 35.2475H118.734ZM114.352 26.9191H105.354L109.853 15.1875L114.352 26.9191Z" fill="white"/>
<path d="M122.369 35.2475H123.545V13.1875H122.369V35.2475Z" fill="white"/>
</svg>
