<svg width="112" height="112" viewBox="0 0 112 112" fill="none" xmlns="http://www.w3.org/2000/svg">
<path fill-rule="evenodd" clip-rule="evenodd" d="M49.6978 46.3369L18.6572 60.6637L49.6978 74.9899L80.7384 60.6637L49.6978 46.3369Z" fill="#EBECF0"/>
<path fill-rule="evenodd" clip-rule="evenodd" d="M80.0451 97.9936L49.6982 112V74.9903L80.7388 60.6641V96.9103C80.7388 97.3755 80.4672 97.7988 80.0451 97.9942V97.9936Z" fill="#F4F5F7"/>
<path fill-rule="evenodd" clip-rule="evenodd" d="M19.3504 97.9936L49.6978 112V74.9903L18.6572 60.6641V96.9097C18.6572 97.3761 18.9276 97.7988 19.3504 97.9942V97.9936Z" fill="#DFE1E6"/>
<path fill-rule="evenodd" clip-rule="evenodd" d="M80.7379 60.6637L49.6973 46.3369V74.9899L80.7379 60.6637Z" fill="#DFE1E6"/>
<path d="M46.8372 66.7845C40.0163 65.671 36.1568 63.5154 35.2576 60.3195C33.5496 54.2437 45.2674 49.8292 46.8378 51.5928C49.1971 54.2437 37.1422 58.5359 35.2582 53.4921C33.3748 48.4482 41.2148 44.3727 42.1423 47.1311C43.0705 49.8894 32.55 50.5277 29.8424 45.0198C28.0375 41.3474 30.1258 38.223 36.1084 35.6465" stroke="#DFE1E6" stroke-width="3.81" stroke-dasharray="1.9 1.9"/>
<path fill-rule="evenodd" clip-rule="evenodd" d="M37.307 13.8418C34.4937 13.8418 32.213 16.1225 32.213 18.9358C32.213 21.373 33.9246 23.4105 36.2112 23.9118C35.142 25.3464 34.5091 27.1253 34.5091 29.0518C34.5091 33.807 38.3632 37.6611 43.1184 37.6611C47.8729 37.6611 51.7276 33.807 51.7276 29.0518C51.7276 28.9231 51.7247 28.7944 51.7194 28.6669C52.3186 28.9149 52.9758 29.0518 53.6648 29.0518C56.4781 29.0518 58.7588 26.7711 58.7588 23.9578C58.7588 21.1445 56.4781 18.8638 53.6648 18.8638C51.3386 18.8638 49.3761 20.4236 48.7668 22.5544C47.2553 21.239 45.2798 20.4425 43.1184 20.4425C42.7936 20.4425 42.473 20.4602 42.1578 20.4957C42.3154 20.0039 42.401 19.4802 42.401 18.9358C42.401 16.1225 40.1197 13.8418 37.307 13.8418Z" fill="#DFE1E6"/>
<path d="M47.8543 31.7787C46.5862 31.7787 45.5582 30.7507 45.5582 29.4826C45.5582 28.2145 46.5862 27.1865 47.8543 27.1865C49.1224 27.1865 50.1504 28.2145 50.1504 29.4826C50.1504 30.7507 49.1224 31.7787 47.8543 31.7787Z" fill="white"/>
<path d="M48.571 30.6305C47.9371 30.6305 47.4233 30.1166 47.4233 29.4827C47.4233 28.8488 47.9371 28.335 48.571 28.335C49.2049 28.335 49.7188 28.8488 49.7188 29.4827C49.7188 30.1166 49.2049 30.6305 48.571 30.6305Z" fill="#DFE1E6"/>
<path d="M40.1053 27.9037C38.8372 27.9037 37.8092 26.8757 37.8092 25.6076C37.8092 24.3395 38.8372 23.3115 40.1053 23.3115C41.3734 23.3115 42.4014 24.3395 42.4014 25.6076C42.4014 26.8757 41.3734 27.9037 40.1053 27.9037Z" fill="white"/>
<path d="M39.3874 27.1861C38.7535 27.1861 38.2397 26.6723 38.2397 26.0384C38.2397 25.4045 38.7535 24.8906 39.3874 24.8906C40.0213 24.8906 40.5352 25.4045 40.5352 26.0384C40.5352 26.6723 40.0213 27.1861 39.3874 27.1861Z" fill="#DFE1E6"/>
<path fill-rule="evenodd" clip-rule="evenodd" d="M39.9745 30.7505C39.6692 30.6944 39.3764 30.8975 39.3209 31.2028C39.1201 32.3068 39.4803 33.1777 40.3812 33.6837C41.2704 34.1831 42.231 34.0556 43.1662 33.3548C43.4148 33.1688 43.4655 32.8164 43.2795 32.5678C43.0936 32.3198 42.7411 32.2685 42.4925 32.455C41.8927 32.9037 41.405 32.9687 40.9315 32.703C40.4698 32.4432 40.3086 32.0547 40.4273 31.4041C40.4828 31.0989 40.2797 30.806 39.9745 30.7505Z" fill="white"/>
<path fill-rule="evenodd" clip-rule="evenodd" d="M77.4825 49.5028L89.5297 44.5038L78.0687 4.12305L66.8965 8.22164L77.4825 49.5028Z" fill="#DFE1E6"/>
<path fill-rule="evenodd" clip-rule="evenodd" d="M77.4824 49.5029L89.5296 44.5039L111.996 63.7322L101.462 68.6361L77.4824 49.5029Z" fill="#F4F5F7"/>
<path fill-rule="evenodd" clip-rule="evenodd" d="M89.5293 44.5038L78.0684 4.12305L100.137 28.0858L111.995 63.7322L89.5293 44.5038Z" fill="#EBECF0"/>
<path fill-rule="evenodd" clip-rule="evenodd" d="M7.80934 32.0136C8.46469 32.0059 9.03266 31.432 9.03148 30.7785C9.0303 30.1095 8.43517 29.5292 7.76683 29.5457C7.11384 29.5628 6.54469 30.1562 6.56417 30.8003C6.58424 31.4645 7.15576 32.0219 7.80934 32.0136ZM10.2637 30.7891C10.2577 32.1866 9.17081 33.2487 7.7497 33.2458C6.41244 33.2428 5.32314 32.1299 5.32904 30.7708C5.33495 29.3798 6.43841 28.3017 7.84594 28.3112C9.1897 28.3206 10.2696 29.427 10.2637 30.7891ZM46.9798 2.46438C47.2986 2.4573 47.5903 2.1556 47.5838 1.83855C47.5773 1.52445 47.2691 1.22689 46.958 1.23397C46.6386 1.24106 46.3469 1.54335 46.3534 1.8598C46.3599 2.1739 46.6681 2.47146 46.9792 2.46438H46.9798ZM48.8177 1.85036C48.8136 2.90482 47.9977 3.70364 46.9284 3.69833C45.9248 3.6936 45.1159 2.86704 45.1194 1.848C45.123 0.793532 45.9401 -0.0052873 47.0087 2.6354e-05C48.013 0.0047496 48.8213 0.831318 48.8177 1.85036ZM51.0642 4.46467H51.8388V3.69006H51.0642V4.46467ZM4.01421 68.2834C5.04978 68.2716 5.94602 67.3659 5.94424 66.3345C5.94247 65.2788 5.00255 64.3625 3.94867 64.3891C2.91723 64.4157 2.01864 65.3526 2.04993 66.3681C2.0824 67.4173 2.98395 68.2958 4.0148 68.2834H4.01421ZM7.78926 66.2506C7.77982 68.4564 6.06351 70.1326 3.81996 70.1284C1.70926 70.1237 -0.00940774 68.3667 3.87557e-05 66.2211C0.00830444 64.026 1.75059 62.3244 3.97288 62.3392C6.09303 62.354 7.79753 64.101 7.78926 66.2506ZM45.156 59.8182C45.4749 59.8111 45.7665 59.5088 45.76 59.1923C45.7541 58.8782 45.4459 58.5807 45.1342 58.5878C44.8154 58.5948 44.5231 58.8971 44.5296 59.2136C44.5367 59.5277 44.8443 59.8247 45.156 59.8182ZM46.9946 59.2041C46.9904 60.2586 46.1739 61.0568 45.1047 61.0521C44.101 61.0474 43.2921 60.2208 43.2957 59.2018C43.2992 58.1473 44.1163 57.3485 45.185 57.3538C46.1893 57.3585 46.9975 58.1851 46.9946 59.2036V59.2041ZM87.5643 74.831C87.8949 74.8759 88.3702 74.7159 88.3649 75.259C88.3596 75.7845 87.8973 75.6269 87.5543 75.6771C87.5543 75.814 87.5596 75.9486 87.5531 76.0815C87.5413 76.3241 87.3783 76.483 87.1469 76.4841C86.9125 76.4853 86.7495 76.3306 86.7365 76.0862C86.7301 75.9587 86.7354 75.83 86.7354 75.6623C86.5937 75.6623 86.4614 75.6664 86.3292 75.6611C86.0706 75.6493 85.9064 75.4822 85.9118 75.2419C85.9177 75.014 86.08 74.8517 86.3227 74.8405C86.4496 74.8351 86.5766 74.8399 86.7171 74.8399C86.7702 74.4974 86.6102 74.0216 87.1918 74.0233C87.4669 74.0239 87.5383 74.1969 87.5637 74.831H87.5643ZM5.26114 58.9143C5.82616 58.9485 5.94838 59.014 5.94838 59.2679C5.94838 59.523 5.82675 59.5885 5.26232 59.6216C5.26232 59.7296 5.26646 59.8406 5.26232 59.9516C5.25347 60.1647 5.11059 60.3035 4.91044 60.2999C4.72033 60.2952 4.58749 60.1606 4.57805 59.9551C4.57273 59.8489 4.57686 59.7426 4.57686 59.6275C4.29937 59.5749 3.90912 59.7237 3.89436 59.2496C3.88727 59.0117 4.0148 58.9544 4.57746 58.9137C4.57746 58.8062 4.57391 58.6952 4.57746 58.5848C4.58631 58.3705 4.72801 58.2341 4.92993 58.2394C5.12358 58.2447 5.25229 58.3758 5.26055 58.5842C5.26469 58.6899 5.26114 58.7956 5.26114 58.9148" fill="#EBECF0"/>
<path fill-rule="evenodd" clip-rule="evenodd" d="M15.4179 20.4541C16.0876 20.7297 16.5732 20.9774 16.8745 21.1964C17.1764 21.4157 17.5621 21.801 18.0307 22.3524L18.4943 21.7142C18.1984 21.346 17.823 20.9959 17.3668 20.6645C16.9116 20.3338 16.4163 20.0513 15.8815 19.816L15.4179 20.4541Z" fill="#EBECF0"/>
<path fill-rule="evenodd" clip-rule="evenodd" d="M66.0281 66.598H66.8033V65.8234H66.0281V66.598ZM36.9199 40.5647H37.6951V39.79H36.9199V40.5647ZM88.3714 64.8067C89.0864 64.5788 89.6249 64.4649 89.9868 64.4649C90.3487 64.4649 90.7691 64.224 91.2467 63.7422V63.1583C90.5601 63.6601 90.0352 63.9105 89.6733 63.9105C89.3108 63.9105 88.8774 64.0144 88.372 64.2228V64.8067H88.3714ZM66.8482 47.1382H67.6187V46.3494H66.8482V47.1382Z" fill="#EBECF0"/>
<path fill-rule="evenodd" clip-rule="evenodd" d="M14.9966 45.7516L15.1466 47.1785L19.6314 46.7071L19.4814 45.2803L14.9966 45.7516Z" fill="#EBECF0"/>
</svg>
