<svg width="12" height="12" viewBox="0 0 12 12" fill="none" xmlns="http://www.w3.org/2000/svg">
<path d="M9.21189 11.3331C8.74712 11.3331 8.09426 11.165 7.11662 10.6188C5.9278 9.95211 5.00827 9.33663 3.82587 8.15733C2.68586 7.01803 2.13109 6.2804 1.35465 4.86752C0.477497 3.27227 0.627022 2.43607 0.794167 2.07868C0.993217 1.65153 1.28703 1.39605 1.6668 1.14248C1.8825 1.00115 2.11077 0.880004 2.34871 0.78057C2.37252 0.770332 2.39466 0.76057 2.41443 0.75176C2.53228 0.698664 2.71086 0.618425 2.93705 0.704141C3.088 0.760808 3.22277 0.876762 3.43372 1.0851C3.86635 1.51177 4.45755 2.46202 4.67564 2.92869C4.82207 3.24322 4.91898 3.45084 4.91922 3.6837C4.91922 3.95632 4.78207 4.16656 4.61564 4.39347C4.58445 4.43609 4.5535 4.4768 4.5235 4.51633C4.34231 4.75443 4.30254 4.82324 4.32873 4.9461C4.38183 5.193 4.77779 5.92801 5.42851 6.57731C6.07923 7.2266 6.79305 7.59756 7.04091 7.65041C7.16901 7.6778 7.23925 7.63637 7.48496 7.44874C7.5202 7.42184 7.55639 7.39398 7.59425 7.36613C7.84806 7.17731 8.04854 7.04374 8.31473 7.04374H8.31616C8.54783 7.04374 8.74617 7.14422 9.07474 7.30993C9.50332 7.52613 10.4821 8.10971 10.9114 8.54281C11.1202 8.75328 11.2367 8.88757 11.2936 9.03829C11.3793 9.2652 11.2986 9.44306 11.246 9.5621C11.2372 9.58187 11.2274 9.60353 11.2172 9.62758C11.1169 9.8651 10.9951 10.0929 10.8531 10.3081C10.6 10.6866 10.3436 10.9797 9.91547 11.179C9.69564 11.283 9.45506 11.3357 9.21189 11.3331Z" fill="#172B4D"/>
</svg>
